<svg xmlns="http://www.w3.org/2000/svg" version="1.1" xmlns:xlink="http://www.w3.org/1999/xlink" xmlns:svgjs="http://svgjs.dev/svgjs" width="1500" height="405" viewBox="0 0 1500 405"><g transform="matrix(1,0,0,1,-0.9090909090909918,-0.7064028627865184)"><svg viewBox="0 0 396 107" data-background-color="#111111" preserveAspectRatio="xMidYMid meet" height="405" width="1500" xmlns="http://www.w3.org/2000/svg" xmlns:xlink="http://www.w3.org/1999/xlink"><g id="tight-bounds" transform="matrix(1,0,0,1,0.2400000000000091,0.18662989214359982)"><svg viewBox="0 0 395.52 106.62674021571281" height="106.62674021571281" width="395.52"><g><svg viewBox="0 0 395.52 106.62674021571281" height="106.62674021571281" width="395.52"><g><svg viewBox="0 0 574.3324115132457 154.8321016380631" height="106.62674021571281" width="395.52"><g><rect width="6.777794133186285" height="134.44176697950485" x="154.29170080103773" y="10.19516732927913" fill="#ffffff" opacity="1" stroke-width="0" stroke="transparent" fill-opacity="1" class="rect-qz-0" data-fill-palette-color="primary" rx="1%" id="qz-0" data-palette-color="#ffffff"></rect></g><g transform="matrix(1,0,0,1,178.8124115132457,21.39864791090453)"><svg viewBox="0 0 395.52 112.03480581625405" height="112.03480581625405" width="395.52"><g id="textblocktransform"><svg viewBox="0 0 395.52 112.03480581625405" height="112.03480581625405" width="395.52" id="textblock"><g><svg viewBox="0 0 395.52 75.15764660118643" height="75.15764660118643" width="395.52"><g transform="matrix(1,0,0,1,0,0)"><svg width="395.52" viewBox="0.44 -37.7 251.03 47.71" height="75.15764660118643" data-palette-color="#ffffff"><path d="M17.94-28L17.94 0 10.96 0 10.96-28 0.44-28 0.44-35.01 28.44-35.01 28.44-28 17.94-28ZM39.3-33.25L39.3-33.25Q39.3-32.32 38.95-31.52 38.6-30.71 37.99-30.11 37.38-29.52 36.56-29.16 35.74-28.81 34.81-28.81L34.81-28.81Q33.88-28.81 33.07-29.16 32.25-29.52 31.65-30.11 31.05-30.71 30.7-31.52 30.34-32.32 30.34-33.25L30.34-33.25Q30.34-34.16 30.7-34.97 31.05-35.79 31.65-36.39 32.25-36.99 33.07-37.34 33.88-37.7 34.81-37.7L34.81-37.7Q35.74-37.7 36.56-37.34 37.38-36.99 37.99-36.39 38.6-35.79 38.95-34.97 39.3-34.16 39.3-33.25ZM38.16-26.15L38.16 0 31.44 0 31.44-26.15 38.16-26.15ZM66.08-20.95L66.08-20.95 61.2-16.04Q60.83-17.07 60.2-17.88 59.57-18.7 58.77-19.26 57.98-19.82 57.05-20.12 56.12-20.41 55.15-20.41L55.15-20.41Q53.78-20.41 52.57-19.85 51.36-19.29 50.47-18.27 49.58-17.26 49.07-15.87 48.55-14.48 48.55-12.79L48.55-12.79Q48.55-11.43 49.07-10.23 49.58-9.03 50.47-8.13 51.36-7.23 52.57-6.71 53.78-6.2 55.15-6.2L55.15-6.2Q56.12-6.2 57.03-6.47 57.93-6.74 58.72-7.24 59.52-7.74 60.14-8.46 60.76-9.18 61.15-10.06L61.15-10.06 66.04-5.15Q65.11-3.83 63.9-2.78 62.69-1.73 61.29-1 59.88-0.27 58.33 0.11 56.78 0.49 55.15 0.49L55.15 0.49Q52.39 0.49 49.96-0.55 47.53-1.59 45.71-3.39 43.89-5.2 42.84-7.62 41.79-10.03 41.79-12.79L41.79-12.79Q41.79-15.8 42.84-18.41 43.89-21.02 45.71-22.96 47.53-24.9 49.96-26.03 52.39-27.15 55.15-27.15L55.15-27.15Q56.78-27.15 58.36-26.73 59.93-26.32 61.36-25.52 62.79-24.73 64-23.58 65.2-22.44 66.08-20.95ZM76.04-3.34L76.04 0 69.33 0 69.33-36.55 76.04-36.55 76.04-13.5 85.98-26.1 93.64-26.1 84.98-15.21 93.64 0 85.98 0 80.68-9.5 76.04-3.34ZM118.37-21.46L105.87-6.4Q106.26-6.27 106.66-6.24 107.05-6.2 107.44-6.2L107.44-6.2Q108.41-6.2 109.32-6.47 110.22-6.74 111.01-7.24 111.81-7.74 112.43-8.46 113.05-9.18 113.44-10.06L113.44-10.06 118.32-5.15Q117.4-3.83 116.19-2.78 114.98-1.73 113.58-1 112.17-0.27 110.62 0.11 109.07 0.49 107.44 0.49L107.44 0.49Q104.68 0.49 102.25-0.54 99.82-1.56 98-3.39 96.18-5.22 95.13-7.75 94.08-10.28 94.08-13.31L94.08-13.31Q94.08-16.41 95.13-18.97 96.18-21.53 98-23.34 99.82-25.15 102.25-26.15 104.68-27.15 107.44-27.15L107.44-27.15Q109.07-27.15 110.63-26.76 112.2-26.37 113.6-25.63 115-24.9 116.23-23.84 117.45-22.78 118.37-21.46L118.37-21.46ZM101.53-9.84L109.29-20.14Q108.83-20.31 108.38-20.36 107.92-20.41 107.44-20.41L107.44-20.41Q106.07-20.41 104.86-19.91 103.65-19.41 102.76-18.48 101.87-17.55 101.36-16.25 100.84-14.94 100.84-13.31L100.84-13.31Q100.84-12.94 100.88-12.48 100.92-12.01 101-11.54 101.09-11.06 101.21-10.62 101.33-10.18 101.53-9.84L101.53-9.84ZM139.88 0L134.83 0Q132.41 0 130.29-0.92 128.16-1.83 126.56-3.43 124.96-5.03 124.05-7.15 123.13-9.28 123.13-11.69L123.13-11.69 123.13-19.46 119.88-19.46 119.88-26.1 123.13-26.1 123.13-36.55 129.77-36.55 129.77-26.1 139.88-26.1 139.88-19.46 129.77-19.46 129.77-11.69Q129.77-10.64 130.16-9.73 130.55-8.81 131.24-8.13 131.92-7.45 132.85-7.04 133.78-6.64 134.83-6.64L134.83-6.64 139.88-6.64 139.88 0ZM168.32-7.01L168.32 0 144.32 0 144.32-35.01 168.32-35.01 168.32-28 151.33-28 151.33-21 162.83-21 162.83-13.99 151.33-13.99 151.33-7.01 168.32-7.01ZM197.13-26.1L197.13 0 195.51 0 192.93-3.59Q191.97-2.73 190.91-1.99 189.85-1.25 188.68-0.7 187.51-0.15 186.27 0.17 185.04 0.49 183.77 0.49L183.77 0.49Q181.01 0.49 178.58-0.44 176.15-1.37 174.34-3.14 172.52-4.91 171.47-7.47 170.42-10.03 170.42-13.31L170.42-13.31Q170.42-16.36 171.47-18.91 172.52-21.46 174.34-23.29 176.15-25.12 178.58-26.14 181.01-27.15 183.77-27.15L183.77-27.15Q185.04-27.15 186.29-26.83 187.53-26.51 188.7-25.95 189.88-25.39 190.94-24.63 192-23.88 192.93-23L192.93-23 195.51-26.1 197.13-26.1ZM190.41-13.31L190.41-13.31Q190.41-14.67 189.89-15.95 189.36-17.24 188.46-18.23 187.56-19.21 186.35-19.81 185.14-20.41 183.77-20.41L183.77-20.41Q182.4-20.41 181.2-19.95 179.99-19.48 179.1-18.58 178.21-17.68 177.69-16.35 177.18-15.01 177.18-13.31L177.18-13.31Q177.18-11.6 177.69-10.27 178.21-8.94 179.1-8.03 179.99-7.13 181.2-6.67 182.4-6.2 183.77-6.2L183.77-6.2Q185.14-6.2 186.35-6.8 187.56-7.4 188.46-8.39 189.36-9.38 189.89-10.66 190.41-11.94 190.41-13.31ZM216.56 0L216.56 0 201.32 0 201.32-6.64 216.56-6.64Q217.24-6.64 217.73-7.13 218.22-7.62 218.22-8.3L218.22-8.3Q218.22-9.01 217.73-9.23 217.24-9.45 216.56-9.45L216.56-9.45 209.62-9.45Q207.89-9.45 206.38-10.11 204.86-10.77 203.74-11.9 202.62-13.04 201.97-14.55 201.32-16.06 201.32-17.8L201.32-17.8Q201.32-19.53 201.97-21.04 202.62-22.56 203.74-23.68 204.86-24.8 206.38-25.45 207.89-26.1 209.62-26.1L209.62-26.1 223.12-26.1 223.12-19.46 209.62-19.46Q208.94-19.46 208.45-18.97 207.96-18.48 207.96-17.8L207.96-17.8Q207.96-17.09 208.45-16.59 208.94-16.09 209.62-16.09L209.62-16.09 216.56-16.09Q218.27-16.09 219.78-15.52 221.29-14.94 222.42-13.92 223.54-12.89 224.2-11.45 224.86-10.01 224.86-8.3L224.86-8.3Q224.86-6.57 224.2-5.07 223.54-3.56 222.42-2.43 221.29-1.29 219.78-0.65 218.27 0 216.56 0ZM238.11 10.01L234.69 9.96 234.69 3.25 238.41 3.3Q239.38 3.3 240.29 2.98 241.19 2.66 241.96 2.1 242.73 1.54 243.31 0.77 243.9 0 244.26-0.9L244.26-0.9Q243.17-0.44 242.03 0.02 240.9 0.49 239.75 0.49L239.75 0.49Q237.33 0.49 235.21-0.37 233.08-1.22 231.48-2.8 229.88-4.37 228.97-6.63 228.05-8.89 228.05-11.69L228.05-11.69 228.05-26.15 234.69-26.15 234.69-11.69Q234.69-10.3 235.1-9.27 235.5-8.23 236.18-7.53 236.87-6.84 237.78-6.49 238.7-6.15 239.75-6.15L239.75-6.15Q240.77-6.15 241.69-6.63 242.6-7.1 243.29-7.89 243.97-8.67 244.36-9.66 244.75-10.64 244.75-11.69L244.75-11.69 244.75-26.15 251.47-26.15 251.47-3.3Q251.44-0.54 250.39 1.88 249.34 4.3 247.52 6.1 245.71 7.91 243.29 8.96 240.87 10.01 238.11 10.01L238.11 10.01Z" opacity="1" transform="matrix(1,0,0,1,0,0)" fill="#ffffff" class="wordmark-text-0" data-fill-palette-color="primary" id="text-0"></path></svg></g></svg></g><g transform="matrix(1,0,0,1,0,92.90056318020811)"><svg viewBox="0 0 395.52 19.13424263604593" height="19.13424263604593" width="395.52"><g transform="matrix(1,0,0,1,0,0)"><svg width="395.52" viewBox="1.1 -37 1001.4 48.45" height="19.13424263604593" data-palette-color="#ffffff"><path d="M27.9-31.8L24.85-26.2Q24.5-26.55 23.58-27.15 22.65-27.75 21.33-28.3 20-28.85 18.45-29.28 16.9-29.7 15.3-29.7L15.3-29.7Q12.5-29.7 11.08-28.65 9.65-27.6 9.65-25.7L9.65-25.7Q9.65-24.25 10.55-23.4 11.45-22.55 13.25-21.95 15.05-21.35 17.75-20.65L17.75-20.65Q21.25-19.8 23.83-18.57 26.4-17.35 27.78-15.38 29.15-13.4 29.15-10.15L29.15-10.15Q29.15-7.3 28.1-5.28 27.05-3.25 25.2-2 23.35-0.75 21-0.18 18.65 0.4 16 0.4L16 0.4Q13.35 0.4 10.7-0.15 8.05-0.7 5.6-1.73 3.15-2.75 1.1-4.2L1.1-4.2 4.15-10.15Q4.6-9.7 5.75-8.97 6.9-8.25 8.55-7.53 10.2-6.8 12.15-6.3 14.1-5.8 16.1-5.8L16.1-5.8Q18.9-5.8 20.35-6.75 21.8-7.7 21.8-9.45L21.8-9.45Q21.8-11.05 20.65-11.95 19.5-12.85 17.45-13.53 15.4-14.2 12.6-15L12.6-15Q9.25-15.95 7-17.13 4.75-18.3 3.65-20.1 2.55-21.9 2.55-24.6L2.55-24.6Q2.55-28.25 4.28-30.73 6-33.2 8.95-34.48 11.9-35.75 15.5-35.75L15.5-35.75Q18-35.75 20.23-35.2 22.45-34.65 24.4-33.75 26.35-32.85 27.9-31.8L27.9-31.8ZM40.4 0L33.7 0 33.7-26.2 40.4-26.2 40.4 0ZM40.4-29.85L33.7-29.85 33.7-36.5 40.4-36.5 40.4-29.85ZM87.15-16.35L87.15 0 80.45 0 80.45-14.7Q80.45-17.8 79.37-19.28 78.3-20.75 76.4-20.75L76.4-20.75Q74.45-20.75 72.67-19.23 70.9-17.7 70.15-15.25L70.15-15.25 70.15 0 63.45 0 63.45-14.7Q63.45-17.85 62.37-19.3 61.3-20.75 59.4-20.75L59.4-20.75Q57.45-20.75 55.67-19.25 53.9-17.75 53.15-15.3L53.15-15.3 53.15 0 46.45 0 46.45-26.2 52.5-26.2 52.5-21.35Q54-23.9 56.5-25.28 59-26.65 62.25-26.65L62.25-26.65Q65.5-26.65 67.32-25.05 69.15-23.45 69.65-21.1L69.65-21.1Q71.25-23.8 73.72-25.23 76.2-26.65 79.3-26.65L79.3-26.65Q81.75-26.65 83.27-25.78 84.8-24.9 85.65-23.43 86.5-21.95 86.82-20.1 87.15-18.25 87.15-16.35L87.15-16.35ZM108.69 0.5L108.69 0.5Q105.64 0.5 103.32-0.88 100.99-2.25 99.69-4.6L99.69-4.6 99.69 10.65 92.99 10.65 92.99-26.2 98.84-26.2 98.84-21.7Q100.34-24 102.64-25.33 104.94-26.65 107.89-26.65L107.89-26.65Q110.54-26.65 112.77-25.6 114.99-24.55 116.64-22.68 118.29-20.8 119.22-18.38 120.14-15.95 120.14-13.15L120.14-13.15Q120.14-9.35 118.67-6.25 117.19-3.15 114.62-1.33 112.04 0.5 108.69 0.5ZM106.44-5.2L106.44-5.2Q107.99-5.2 109.24-5.85 110.49-6.5 111.42-7.63 112.34-8.75 112.82-10.18 113.29-11.6 113.29-13.15L113.29-13.15Q113.29-14.8 112.77-16.2 112.24-17.6 111.24-18.68 110.24-19.75 108.92-20.35 107.59-20.95 106.04-20.95L106.04-20.95Q105.09-20.95 104.12-20.63 103.14-20.3 102.24-19.7 101.34-19.1 100.67-18.3 99.99-17.5 99.69-16.55L99.69-16.55 99.69-10.4Q100.29-8.95 101.32-7.75 102.34-6.55 103.69-5.88 105.04-5.2 106.44-5.2ZM124.64-6.05L124.64-36.5 131.34-36.5 131.34-8.4Q131.34-6.6 131.94-5.98 132.54-5.35 133.59-5.35L133.59-5.35Q134.39-5.35 135.24-5.55 136.09-5.75 136.74-6.05L136.74-6.05 137.64-0.95Q136.29-0.3 134.49 0.05 132.69 0.4 131.24 0.4L131.24 0.4Q128.09 0.4 126.37-1.28 124.64-2.95 124.64-6.05L124.64-6.05ZM147.24 0L140.54 0 140.54-26.2 147.24-26.2 147.24 0ZM147.24-29.85L140.54-29.85 140.54-36.5 147.24-36.5 147.24-29.85ZM161.59 0L154.89 0 154.89-19.7 151.44-19.7 151.44-24.8 154.89-24.8 154.89-26.4Q154.89-29.65 155.96-32.02 157.04-34.4 159.01-35.7 160.99-37 163.64-37L163.64-37Q165.24-37 166.86-36.6 168.49-36.2 170.09-35.45L170.09-35.45 168.74-30.4Q167.99-30.8 166.99-31.08 165.99-31.35 165.09-31.35L165.09-31.35Q163.39-31.35 162.49-30.15 161.59-28.95 161.59-26.65L161.59-26.65 161.59-24.8 167.99-24.8 167.99-19.7 161.59-19.7 161.59 0ZM172.33 10.9L172.33 5.1Q173.23 5.3 174.01 5.45 174.78 5.6 175.33 5.6L175.33 5.6Q176.28 5.6 176.91 5.13 177.53 4.65 178.13 3.43 178.73 2.2 179.38 0L179.38 0 169.03-26.2 175.98-26.2 183.03-6.85 189.23-26.2 195.63-26.2 184.63 5.2Q184.03 6.95 182.81 8.38 181.58 9.8 179.76 10.63 177.93 11.45 175.68 11.45L175.68 11.45Q174.88 11.45 174.08 11.33 173.28 11.2 172.33 10.9L172.33 10.9ZM205.98 0L199.28 0 199.28-26.2 205.98-26.2 205.98 0ZM205.98-29.85L199.28-29.85 199.28-36.5 205.98-36.5 205.98-29.85ZM236.38-16.35L236.38 0 229.68 0 229.68-14.7Q229.68-17.85 228.58-19.3 227.48-20.75 225.53-20.75L225.53-20.75Q224.18-20.75 222.8-20.05 221.43-19.35 220.33-18.13 219.23-16.9 218.73-15.3L218.73-15.3 218.73 0 212.03 0 212.03-26.2 218.08-26.2 218.08-21.35Q219.08-23.05 220.63-24.23 222.18-25.4 224.2-26.03 226.23-26.65 228.48-26.65L228.48-26.65Q230.93-26.65 232.5-25.78 234.08-24.9 234.9-23.43 235.73-21.95 236.05-20.1 236.38-18.25 236.38-16.35L236.38-16.35ZM252.48 0.15L252.48 0.15Q249.88 0.15 247.7-0.88 245.53-1.9 243.95-3.75 242.38-5.6 241.53-8 240.68-10.4 240.68-13.1L240.68-13.1Q240.68-15.95 241.58-18.4 242.48-20.85 244.1-22.73 245.73-24.6 247.95-25.63 250.18-26.65 252.88-26.65L252.88-26.65Q255.93-26.65 258.23-25.28 260.53-23.9 262.03-21.6L262.03-21.6 262.03-26.2 267.88-26.2 267.88-1.25Q267.88 2.65 266 5.43 264.13 8.2 260.82 9.68 257.53 11.15 253.33 11.15L253.33 11.15Q249.08 11.15 246.13 9.73 243.18 8.3 241.08 5.7L241.08 5.7 244.73 2.15Q246.23 4 248.5 5.05 250.78 6.1 253.33 6.1L253.33 6.1Q255.48 6.1 257.25 5.33 259.03 4.55 260.1 2.93 261.18 1.3 261.18-1.25L261.18-1.25 261.18-4.55Q259.88-2.3 257.5-1.07 255.13 0.15 252.48 0.15ZM254.73-5.2L254.73-5.2Q255.83-5.2 256.82-5.55 257.82-5.9 258.68-6.5 259.53-7.1 260.18-7.93 260.82-8.75 261.18-9.6L261.18-9.6 261.18-15.85Q260.57-17.4 259.5-18.55 258.43-19.7 257.1-20.33 255.78-20.95 254.33-20.95L254.33-20.95Q252.78-20.95 251.53-20.3 250.28-19.65 249.38-18.48 248.48-17.3 248-15.88 247.53-14.45 247.53-12.9L247.53-12.9Q247.53-11.3 248.08-9.9 248.63-8.5 249.6-7.45 250.58-6.4 251.9-5.8 253.23-5.2 254.73-5.2ZM310.77-31.8L307.72-26.2Q307.37-26.55 306.44-27.15 305.52-27.75 304.19-28.3 302.87-28.85 301.32-29.28 299.77-29.7 298.17-29.7L298.17-29.7Q295.37-29.7 293.94-28.65 292.52-27.6 292.52-25.7L292.52-25.7Q292.52-24.25 293.42-23.4 294.32-22.55 296.12-21.95 297.92-21.35 300.62-20.65L300.62-20.65Q304.12-19.8 306.69-18.57 309.27-17.35 310.64-15.38 312.02-13.4 312.02-10.15L312.02-10.15Q312.02-7.3 310.97-5.28 309.92-3.25 308.07-2 306.22-0.75 303.87-0.18 301.52 0.4 298.87 0.4L298.87 0.4Q296.22 0.4 293.57-0.15 290.92-0.7 288.47-1.73 286.02-2.75 283.97-4.2L283.97-4.2 287.02-10.15Q287.47-9.7 288.62-8.97 289.77-8.25 291.42-7.53 293.07-6.8 295.02-6.3 296.97-5.8 298.97-5.8L298.97-5.8Q301.77-5.8 303.22-6.75 304.67-7.7 304.67-9.45L304.67-9.45Q304.67-11.05 303.52-11.95 302.37-12.85 300.32-13.53 298.27-14.2 295.47-15L295.47-15Q292.12-15.95 289.87-17.13 287.62-18.3 286.52-20.1 285.42-21.9 285.42-24.6L285.42-24.6Q285.42-28.25 287.14-30.73 288.87-33.2 291.82-34.48 294.77-35.75 298.37-35.75L298.37-35.75Q300.87-35.75 303.1-35.2 305.32-34.65 307.27-33.75 309.22-32.85 310.77-31.8L310.77-31.8ZM328.72 0.5L328.72 0.5Q325.57 0.5 323.02-0.58 320.47-1.65 318.67-3.53 316.87-5.4 315.89-7.83 314.92-10.25 314.92-12.95L314.92-12.95Q314.92-16.7 316.59-19.8 318.27-22.9 321.39-24.78 324.52-26.65 328.77-26.65L328.77-26.65Q333.07-26.65 336.12-24.78 339.17-22.9 340.79-19.83 342.42-16.75 342.42-13.2L342.42-13.2Q342.42-12.6 342.37-11.98 342.32-11.35 342.27-10.95L342.27-10.95 322.02-10.95Q322.22-8.95 323.19-7.45 324.17-5.95 325.69-5.18 327.22-4.4 328.97-4.4L328.97-4.4Q330.97-4.4 332.74-5.38 334.52-6.35 335.17-7.95L335.17-7.95 340.92-6.35Q339.97-4.35 338.19-2.8 336.42-1.25 334.02-0.38 331.62 0.5 328.72 0.5ZM321.87-15.2L321.87-15.2 335.57-15.2Q335.37-17.2 334.44-18.68 333.52-20.15 332.02-20.98 330.52-21.8 328.67-21.8L328.67-21.8Q326.87-21.8 325.39-20.98 323.92-20.15 322.99-18.68 322.07-17.2 321.87-15.2ZM344.71-7.75L344.71-7.75Q344.71-10.3 346.14-12.23 347.56-14.15 350.11-15.2 352.66-16.25 355.96-16.25L355.96-16.25Q357.61-16.25 359.31-16 361.01-15.75 362.26-15.2L362.26-15.2 362.26-16.6Q362.26-19.1 360.79-20.45 359.31-21.8 356.41-21.8L356.41-21.8Q354.26-21.8 352.31-21.05 350.36-20.3 348.21-18.85L348.21-18.85 346.06-23.25Q348.66-24.95 351.39-25.8 354.11-26.65 357.11-26.65L357.11-26.65Q362.71-26.65 365.84-23.85 368.96-21.05 368.96-15.85L368.96-15.85 368.96-7.5Q368.96-6.45 369.34-6 369.71-5.55 370.56-5.45L370.56-5.45 370.56 0Q369.66 0.15 368.94 0.25 368.21 0.35 367.71 0.35L367.71 0.35Q365.71 0.35 364.69-0.55 363.66-1.45 363.41-2.75L363.41-2.75 363.26-4.1Q361.56-1.9 359.01-0.7 356.46 0.5 353.81 0.5L353.81 0.5Q351.21 0.5 349.14-0.58 347.06-1.65 345.89-3.53 344.71-5.4 344.71-7.75ZM361.01-6.4L361.01-6.4Q361.56-7 361.91-7.6 362.26-8.2 362.26-8.7L362.26-8.7 362.26-11.35Q361.06-11.85 359.66-12.13 358.26-12.4 357.01-12.4L357.01-12.4Q354.41-12.4 352.74-11.28 351.06-10.15 351.06-8.3L351.06-8.3Q351.06-7.3 351.61-6.4 352.16-5.5 353.21-4.95 354.26-4.4 355.71-4.4L355.71-4.4Q357.21-4.4 358.66-4.98 360.11-5.55 361.01-6.4ZM389.31-6.65L390.66-1.35Q389.81-1 388.61-0.55 387.41-0.1 386.04 0.18 384.66 0.45 383.26 0.45L383.26 0.45Q381.41 0.45 379.86-0.2 378.31-0.85 377.39-2.27 376.46-3.7 376.46-6L376.46-6 376.46-21.05 373.01-21.05 373.01-26.2 376.46-26.2 376.46-34.7 383.16-34.7 383.16-26.2 388.66-26.2 388.66-21.05 383.16-21.05 383.16-8.25Q383.21-6.9 383.91-6.3 384.61-5.7 385.66-5.7L385.66-5.7Q386.71-5.7 387.71-6.05 388.71-6.4 389.31-6.65L389.31-6.65ZM403.81 0.5L403.81 0.5Q400.46 0.5 397.41-0.6 394.36-1.7 392.16-3.85L392.16-3.85 394.56-8.2Q396.91-6.3 399.18-5.4 401.46-4.5 403.56-4.5L403.56-4.5Q405.51-4.5 406.68-5.2 407.86-5.9 407.86-7.3L407.86-7.3Q407.86-8.25 407.21-8.78 406.56-9.3 405.33-9.7 404.11-10.1 402.36-10.6L402.36-10.6Q399.46-11.55 397.51-12.45 395.56-13.35 394.58-14.73 393.61-16.1 393.61-18.25L393.61-18.25Q393.61-20.85 394.93-22.73 396.26-24.6 398.63-25.65 401.01-26.7 404.21-26.7L404.21-26.7Q407.01-26.7 409.51-25.83 412.01-24.95 414.06-23L414.06-23 411.36-18.75Q409.36-20.3 407.56-21.03 405.76-21.75 403.91-21.75L403.91-21.75Q402.86-21.75 401.93-21.5 401.01-21.25 400.43-20.68 399.86-20.1 399.86-19.05L399.86-19.05Q399.86-18.1 400.38-17.57 400.91-17.05 401.98-16.65 403.06-16.25 404.61-15.75L404.61-15.75Q407.76-14.85 409.93-13.9 412.11-12.95 413.21-11.58 414.31-10.2 414.31-7.8L414.31-7.8Q414.31-3.9 411.46-1.7 408.61 0.5 403.81 0.5ZM422.46 5.75L419.46 5.75 420.81-0.2 418.71-0.2 418.71-7.2 424.51-7.2 424.51-0.2 422.46 5.75ZM438.1 0L451.2-35.5 458.2-35.5 471.25 0 464.15 0 460.85-8.85 448.45-8.85 445.2 0 438.1 0ZM449.6-13.7L459.6-13.7 454.7-28.35 449.6-13.7ZM515.2-16.35L515.2 0 508.5 0 508.5-14.7Q508.5-17.8 507.43-19.28 506.35-20.75 504.45-20.75L504.45-20.75Q502.5-20.75 500.72-19.23 498.95-17.7 498.2-15.25L498.2-15.25 498.2 0 491.5 0 491.5-14.7Q491.5-17.85 490.43-19.3 489.35-20.75 487.45-20.75L487.45-20.75Q485.5-20.75 483.72-19.25 481.95-17.75 481.2-15.3L481.2-15.3 481.2 0 474.5 0 474.5-26.2 480.55-26.2 480.55-21.35Q482.05-23.9 484.55-25.28 487.05-26.65 490.3-26.65L490.3-26.65Q493.55-26.65 495.38-25.05 497.2-23.45 497.7-21.1L497.7-21.1Q499.3-23.8 501.77-25.23 504.25-26.65 507.35-26.65L507.35-26.65Q509.8-26.65 511.32-25.78 512.85-24.9 513.7-23.43 514.55-21.95 514.88-20.1 515.2-18.25 515.2-16.35L515.2-16.35ZM536.75 0.5L536.75 0.5Q533.7 0.5 531.37-0.88 529.05-2.25 527.75-4.6L527.75-4.6 527.75 10.65 521.05 10.65 521.05-26.2 526.9-26.2 526.9-21.7Q528.4-24 530.7-25.33 533-26.65 535.95-26.65L535.95-26.65Q538.6-26.65 540.82-25.6 543.05-24.55 544.7-22.68 546.35-20.8 547.27-18.38 548.2-15.95 548.2-13.15L548.2-13.15Q548.2-9.35 546.72-6.25 545.25-3.15 542.67-1.33 540.1 0.5 536.75 0.5ZM534.5-5.2L534.5-5.2Q536.05-5.2 537.3-5.85 538.55-6.5 539.47-7.63 540.4-8.75 540.87-10.18 541.35-11.6 541.35-13.15L541.35-13.15Q541.35-14.8 540.82-16.2 540.3-17.6 539.3-18.68 538.3-19.75 536.97-20.35 535.65-20.95 534.1-20.95L534.1-20.95Q533.15-20.95 532.17-20.63 531.2-20.3 530.3-19.7 529.4-19.1 528.72-18.3 528.05-17.5 527.75-16.55L527.75-16.55 527.75-10.4Q528.35-8.95 529.37-7.75 530.4-6.55 531.75-5.88 533.1-5.2 534.5-5.2ZM552.69-6.05L552.69-36.5 559.39-36.5 559.39-8.4Q559.39-6.6 559.99-5.98 560.59-5.35 561.64-5.35L561.64-5.35Q562.44-5.35 563.29-5.55 564.14-5.75 564.79-6.05L564.79-6.05 565.69-0.95Q564.34-0.3 562.54 0.05 560.74 0.4 559.29 0.4L559.29 0.4Q556.14 0.4 554.42-1.28 552.69-2.95 552.69-6.05L552.69-6.05ZM575.29 0L568.59 0 568.59-26.2 575.29-26.2 575.29 0ZM575.29-29.85L568.59-29.85 568.59-36.5 575.29-36.5 575.29-29.85ZM589.64 0L582.94 0 582.94-19.7 579.49-19.7 579.49-24.8 582.94-24.8 582.94-26.4Q582.94-29.65 584.01-32.02 585.09-34.4 587.06-35.7 589.04-37 591.69-37L591.69-37Q593.29-37 594.91-36.6 596.54-36.2 598.14-35.45L598.14-35.45 596.79-30.4Q596.04-30.8 595.04-31.08 594.04-31.35 593.14-31.35L593.14-31.35Q591.44-31.35 590.54-30.15 589.64-28.95 589.64-26.65L589.64-26.65 589.64-24.8 596.04-24.8 596.04-19.7 589.64-19.7 589.64 0ZM600.39 10.9L600.39 5.1Q601.29 5.3 602.06 5.45 602.84 5.6 603.39 5.6L603.39 5.6Q604.34 5.6 604.96 5.13 605.59 4.65 606.19 3.43 606.79 2.2 607.44 0L607.44 0 597.09-26.2 604.04-26.2 611.09-6.85 617.29-26.2 623.69-26.2 612.69 5.2Q612.09 6.95 610.86 8.38 609.64 9.8 607.81 10.63 605.99 11.45 603.74 11.45L603.74 11.45Q602.94 11.45 602.14 11.33 601.34 11.2 600.39 10.9L600.39 10.9ZM634.03 0L627.33 0 627.33-26.2 634.03-26.2 634.03 0ZM634.03-29.85L627.33-29.85 627.33-36.5 634.03-36.5 634.03-29.85ZM664.43-16.35L664.43 0 657.73 0 657.73-14.7Q657.73-17.85 656.63-19.3 655.53-20.75 653.58-20.75L653.58-20.75Q652.23-20.75 650.86-20.05 649.48-19.35 648.38-18.13 647.28-16.9 646.78-15.3L646.78-15.3 646.78 0 640.08 0 640.08-26.2 646.13-26.2 646.13-21.35Q647.13-23.05 648.68-24.23 650.23-25.4 652.26-26.03 654.28-26.65 656.53-26.65L656.53-26.65Q658.98-26.65 660.56-25.78 662.13-24.9 662.96-23.43 663.78-21.95 664.11-20.1 664.43-18.25 664.43-16.35L664.43-16.35ZM680.53 0.15L680.53 0.15Q677.93 0.15 675.75-0.88 673.58-1.9 672-3.75 670.43-5.6 669.58-8 668.73-10.4 668.73-13.1L668.73-13.1Q668.73-15.95 669.63-18.4 670.53-20.85 672.15-22.73 673.78-24.6 676-25.63 678.23-26.65 680.93-26.65L680.93-26.65Q683.98-26.65 686.28-25.28 688.58-23.9 690.08-21.6L690.08-21.6 690.08-26.2 695.93-26.2 695.93-1.25Q695.93 2.65 694.05 5.43 692.18 8.2 688.88 9.68 685.58 11.15 681.38 11.15L681.38 11.15Q677.13 11.15 674.18 9.73 671.23 8.3 669.13 5.7L669.13 5.7 672.78 2.15Q674.28 4 676.55 5.05 678.83 6.1 681.38 6.1L681.38 6.1Q683.53 6.1 685.3 5.33 687.08 4.55 688.15 2.93 689.23 1.3 689.23-1.25L689.23-1.25 689.23-4.55Q687.93-2.3 685.55-1.07 683.18 0.15 680.53 0.15ZM682.78-5.2L682.78-5.2Q683.88-5.2 684.88-5.55 685.88-5.9 686.73-6.5 687.58-7.1 688.23-7.93 688.88-8.75 689.23-9.6L689.23-9.6 689.23-15.85Q688.63-17.4 687.55-18.55 686.48-19.7 685.15-20.33 683.83-20.95 682.38-20.95L682.38-20.95Q680.83-20.95 679.58-20.3 678.33-19.65 677.43-18.48 676.53-17.3 676.05-15.88 675.58-14.45 675.58-12.9L675.58-12.9Q675.58-11.3 676.13-9.9 676.68-8.5 677.65-7.45 678.63-6.4 679.95-5.8 681.28-5.2 682.78-5.2ZM721.52-6.05L739.27-6.05 739.27 0 714.62 0 714.62-35.5 738.82-35.5 738.82-29.45 721.52-29.45 721.52-20.9 736.47-20.9 736.47-15.3 721.52-15.3 721.52-6.05ZM741.32-26.2L748.32-26.2 753.82-18 754.22-17.1 754.72-18 760.17-26.2 767.22-26.2 758.12-13.15 767.37 0 760.32 0 754.67-8.15 754.22-9 753.82-8.15 748.22 0 741.17 0 750.42-13 741.32-26.2ZM786.27 0.5L786.27 0.5Q783.22 0.5 780.89-0.88 778.57-2.25 777.27-4.6L777.27-4.6 777.27 10.65 770.57 10.65 770.57-26.2 776.42-26.2 776.42-21.7Q777.92-24 780.22-25.33 782.52-26.65 785.47-26.65L785.47-26.65Q788.12-26.65 790.34-25.6 792.57-24.55 794.22-22.68 795.87-20.8 796.79-18.38 797.72-15.95 797.72-13.15L797.72-13.15Q797.72-9.35 796.24-6.25 794.77-3.15 792.19-1.33 789.62 0.5 786.27 0.5ZM784.02-5.2L784.02-5.2Q785.57-5.2 786.82-5.85 788.07-6.5 788.99-7.63 789.92-8.75 790.39-10.18 790.87-11.6 790.87-13.15L790.87-13.15Q790.87-14.8 790.34-16.2 789.82-17.6 788.82-18.68 787.82-19.75 786.49-20.35 785.17-20.95 783.62-20.95L783.62-20.95Q782.67-20.95 781.69-20.63 780.72-20.3 779.82-19.7 778.92-19.1 778.24-18.3 777.57-17.5 777.27-16.55L777.27-16.55 777.27-10.4Q777.87-8.95 778.89-7.75 779.92-6.55 781.27-5.88 782.62-5.2 784.02-5.2ZM814.42 0.5L814.42 0.5Q811.27 0.5 808.72-0.58 806.17-1.65 804.37-3.53 802.57-5.4 801.59-7.83 800.62-10.25 800.62-12.95L800.62-12.95Q800.62-16.7 802.29-19.8 803.97-22.9 807.09-24.78 810.22-26.65 814.47-26.65L814.47-26.65Q818.77-26.65 821.82-24.78 824.87-22.9 826.49-19.83 828.12-16.75 828.12-13.2L828.12-13.2Q828.12-12.6 828.07-11.98 828.02-11.35 827.97-10.95L827.97-10.95 807.72-10.95Q807.92-8.95 808.89-7.45 809.87-5.95 811.39-5.18 812.92-4.4 814.67-4.4L814.67-4.4Q816.67-4.4 818.44-5.38 820.22-6.35 820.87-7.95L820.87-7.95 826.62-6.35Q825.67-4.35 823.89-2.8 822.12-1.25 819.72-0.38 817.32 0.5 814.42 0.5ZM807.57-15.2L807.57-15.2 821.27-15.2Q821.07-17.2 820.14-18.68 819.22-20.15 817.72-20.98 816.22-21.8 814.37-21.8L814.37-21.8Q812.57-21.8 811.09-20.98 809.62-20.15 808.69-18.68 807.77-17.2 807.57-15.2ZM847.81-26.5L847.81-20.4Q844.76-20.4 842.36-19.23 839.96-18.05 838.91-15.85L838.91-15.85 838.91 0 832.21 0 832.21-26.2 838.36-26.2 838.36-20.6Q839.76-23.3 841.91-24.85 844.06-26.4 846.46-26.55L846.46-26.55Q847.01-26.55 847.31-26.55 847.61-26.55 847.81-26.5L847.81-26.5ZM858.26 0L851.56 0 851.56-26.2 858.26-26.2 858.26 0ZM858.26-29.85L851.56-29.85 851.56-36.5 858.26-36.5 858.26-29.85ZM876.46 0.5L876.46 0.5Q873.31 0.5 870.76-0.58 868.21-1.65 866.41-3.53 864.61-5.4 863.63-7.83 862.66-10.25 862.66-12.95L862.66-12.95Q862.66-16.7 864.33-19.8 866.01-22.9 869.13-24.78 872.26-26.65 876.51-26.65L876.51-26.65Q880.81-26.65 883.86-24.78 886.91-22.9 888.53-19.83 890.16-16.75 890.16-13.2L890.16-13.2Q890.16-12.6 890.11-11.98 890.06-11.35 890.01-10.95L890.01-10.95 869.76-10.95Q869.96-8.95 870.93-7.45 871.91-5.95 873.43-5.18 874.96-4.4 876.71-4.4L876.71-4.4Q878.71-4.4 880.48-5.38 882.26-6.35 882.91-7.95L882.91-7.95 888.66-6.35Q887.71-4.35 885.93-2.8 884.16-1.25 881.76-0.38 879.36 0.5 876.46 0.5ZM869.61-15.2L869.61-15.2 883.31-15.2Q883.11-17.2 882.18-18.68 881.26-20.15 879.76-20.98 878.26-21.8 876.41-21.8L876.41-21.8Q874.61-21.8 873.13-20.98 871.66-20.15 870.73-18.68 869.81-17.2 869.61-15.2ZM918.61-16.35L918.61 0 911.91 0 911.91-14.7Q911.91-17.85 910.81-19.3 909.71-20.75 907.76-20.75L907.76-20.75Q906.41-20.75 905.03-20.05 903.66-19.35 902.56-18.13 901.46-16.9 900.96-15.3L900.96-15.3 900.96 0 894.26 0 894.26-26.2 900.31-26.2 900.31-21.35Q901.31-23.05 902.86-24.23 904.41-25.4 906.43-26.03 908.46-26.65 910.71-26.65L910.71-26.65Q913.16-26.65 914.73-25.78 916.31-24.9 917.13-23.43 917.96-21.95 918.28-20.1 918.61-18.25 918.61-16.35L918.61-16.35ZM936.65 0.5L936.65 0.5Q933.45 0.5 930.9-0.58 928.35-1.65 926.55-3.58 924.75-5.5 923.78-7.95 922.8-10.4 922.8-13.1L922.8-13.1Q922.8-16.8 924.48-19.88 926.15-22.95 929.25-24.8 932.35-26.65 936.6-26.65L936.6-26.65Q940.85-26.65 943.9-24.8 946.95-22.95 948.45-19.95L948.45-19.95 941.9-17.95Q941.05-19.4 939.65-20.18 938.25-20.95 936.55-20.95L936.55-20.95Q934.65-20.95 933.08-19.98 931.5-19 930.6-17.23 929.7-15.45 929.7-13.1L929.7-13.1Q929.7-10.8 930.63-9.03 931.55-7.25 933.1-6.23 934.65-5.2 936.55-5.2L936.55-5.2Q937.75-5.2 938.83-5.6 939.9-6 940.75-6.7 941.6-7.4 942-8.3L942-8.3 948.55-6.3Q947.65-4.35 945.93-2.8 944.2-1.25 941.88-0.38 939.55 0.5 936.65 0.5ZM964.55 0.5L964.55 0.5Q961.4 0.5 958.85-0.58 956.3-1.65 954.5-3.53 952.7-5.4 951.73-7.83 950.75-10.25 950.75-12.95L950.75-12.95Q950.75-16.7 952.43-19.8 954.1-22.9 957.23-24.78 960.35-26.65 964.6-26.65L964.6-26.65Q968.9-26.65 971.95-24.78 975-22.9 976.63-19.83 978.25-16.75 978.25-13.2L978.25-13.2Q978.25-12.6 978.2-11.98 978.15-11.35 978.1-10.95L978.1-10.95 957.85-10.95Q958.05-8.95 959.03-7.45 960-5.95 961.53-5.18 963.05-4.4 964.8-4.4L964.8-4.4Q966.8-4.4 968.58-5.38 970.35-6.35 971-7.95L971-7.95 976.75-6.35Q975.8-4.35 974.03-2.8 972.25-1.25 969.85-0.38 967.45 0.5 964.55 0.5ZM957.7-15.2L957.7-15.2 971.4-15.2Q971.2-17.2 970.28-18.68 969.35-20.15 967.85-20.98 966.35-21.8 964.5-21.8L964.5-21.8Q962.7-21.8 961.23-20.98 959.75-20.15 958.83-18.68 957.9-17.2 957.7-15.2ZM992 0.5L992 0.5Q988.65 0.5 985.6-0.6 982.55-1.7 980.35-3.85L980.35-3.85 982.75-8.2Q985.1-6.3 987.37-5.4 989.65-4.5 991.75-4.5L991.75-4.5Q993.7-4.5 994.87-5.2 996.05-5.9 996.05-7.3L996.05-7.3Q996.05-8.25 995.4-8.78 994.75-9.3 993.52-9.7 992.3-10.1 990.55-10.6L990.55-10.6Q987.65-11.55 985.7-12.45 983.75-13.35 982.77-14.73 981.8-16.1 981.8-18.25L981.8-18.25Q981.8-20.85 983.12-22.73 984.45-24.6 986.82-25.65 989.2-26.7 992.4-26.7L992.4-26.7Q995.2-26.7 997.7-25.83 1000.2-24.95 1002.25-23L1002.25-23 999.55-18.75Q997.55-20.3 995.75-21.03 993.95-21.75 992.1-21.75L992.1-21.75Q991.05-21.75 990.12-21.5 989.2-21.25 988.62-20.68 988.05-20.1 988.05-19.05L988.05-19.05Q988.05-18.1 988.57-17.57 989.1-17.05 990.17-16.65 991.25-16.25 992.8-15.75L992.8-15.75Q995.95-14.85 998.12-13.9 1000.3-12.95 1001.4-11.58 1002.5-10.2 1002.5-7.8L1002.5-7.8Q1002.5-3.9 999.65-1.7 996.8 0.5 992 0.5Z" opacity="1" transform="matrix(1,0,0,1,0,0)" fill="#ffffff" class="slogan-text-1" data-fill-palette-color="secondary" id="text-1"></path></svg></g></svg></g></svg></g></svg></g><g><svg viewBox="0 0 136.54878422201605 154.8321016380631" height="154.8321016380631" width="136.54878422201605"><g><svg xmlns="http://www.w3.org/2000/svg" xmlns:xlink="http://www.w3.org/1999/xlink" version="1.1" x="0" y="0" viewBox="5.913 0 88.17300000000002 99.97899999999998" enable-background="new 0 0 100 100" xml:space="preserve" height="154.8321016380631" width="136.54878422201605" class="icon-icon-0" data-fill-palette-color="accent" id="icon-0"><g fill="#ffffff" data-fill-palette-color="accent"><path fill-rule="evenodd" clip-rule="evenodd" d="M5.913 5.835v58.376c0.874 0.021 1.472 0.674 1.472 1.606 0 0.897-0.566 1.565-1.472 1.601v16.328c3.223 0 5.835 2.612 5.835 5.836h30.397c0-3.224 2.612-5.836 5.835-5.836V67.383c-0.753-0.122-1.264-0.735-1.264-1.564 0-0.843 0.521-1.435 1.264-1.562V5.835c-3.223 0-5.835-2.614-5.835-5.835H11.749C11.749 3.222 9.136 5.835 5.913 5.835zM44.466 65.818c0 0.922-0.588 1.613-1.535 1.613-0.896 0-1.512-0.691-1.512-1.613 0-0.947 0.641-1.614 1.537-1.614S44.466 64.871 44.466 65.818zM39.169 65.818c0 0.922-0.589 1.613-1.536 1.613-0.896 0-1.511-0.691-1.511-1.613 0-0.947 0.641-1.614 1.536-1.614C38.555 64.204 39.169 64.871 39.169 65.818zM33.872 65.818c0 0.922-0.589 1.613-1.536 1.613-0.897 0-1.509-0.691-1.509-1.613 0-0.947 0.639-1.614 1.535-1.614C33.257 64.204 33.872 64.871 33.872 65.818zM28.574 65.818c0 0.922-0.589 1.613-1.536 1.613-0.896 0-1.511-0.691-1.511-1.613 0-0.947 0.639-1.614 1.536-1.614C27.96 64.204 28.574 64.871 28.574 65.818zM23.277 65.818c0 0.922-0.589 1.613-1.536 1.613-0.896 0-1.509-0.691-1.509-1.613 0-0.947 0.64-1.614 1.535-1.614C22.664 64.204 23.277 64.871 23.277 65.818zM17.979 65.818c0 0.922-0.587 1.613-1.535 1.613-0.898 0-1.511-0.691-1.511-1.613 0-0.947 0.64-1.614 1.536-1.614C17.365 64.204 17.979 64.871 17.979 65.818zM12.683 65.818c0 0.922-0.589 1.613-1.537 1.613-0.896 0-1.509-0.691-1.509-1.613 0-0.947 0.639-1.614 1.535-1.614C12.068 64.204 12.683 64.871 12.683 65.818zM36.7 9.803v18.193h-1.399V9.803H36.7zM33.944 9.803v18.193h-1.442V9.803H33.944zM31.146 9.803v18.193h-4.199V9.803H31.146zM25.504 9.803v18.193h-1.356V9.803H25.504zM22.749 9.803v18.193h-2.799V9.803H22.749zM18.506 9.803v18.193H17.15V9.803H18.506z" fill="#ffffff" data-fill-palette-color="accent"></path><path fill-rule="evenodd" clip-rule="evenodd" d="M91.371 19.312L64 6.092c-1.402 2.9-4.891 4.118-7.793 2.716l-4.104 8.498v46.951 3.475 16.016 4.122H47.98c-0.944 0-1.714 0.769-1.714 1.714v4.122h-4.121H39.42l12.989 6.273c1.402-2.902 4.892-4.119 7.794-2.717l7.116-14.735c-0.624-0.438-0.818-1.212-0.457-1.959 0.366-0.758 1.092-1.064 1.816-0.856l25.408-52.606C91.186 25.703 89.971 22.212 91.371 19.312zM55.296 74.981c-0.4 0.829-1.231 1.195-2.085 0.783-0.808-0.389-1.059-1.277-0.657-2.109 0.41-0.852 1.275-1.175 2.084-0.784C55.444 73.262 55.708 74.128 55.296 74.981zM72.122 20.902l-7.911 16.382-1.221-0.59 7.911-16.382L72.122 20.902zM64.6 17.269l1.222 0.59-7.913 16.382-1.221-0.589L64.6 17.269zM60.064 77.285c-0.399 0.831-1.231 1.195-2.084 0.785-0.808-0.391-1.06-1.28-0.658-2.11 0.412-0.853 1.277-1.175 2.085-0.785C60.215 75.563 60.478 76.434 60.064 77.285zM59.209 34.868l7.911-16.382 2.521 1.216-7.912 16.383L59.209 34.868zM64.836 79.589c-0.401 0.829-1.231 1.197-2.085 0.784-0.808-0.39-1.06-1.279-0.659-2.109 0.412-0.854 1.279-1.176 2.086-0.785C64.983 77.869 65.247 78.735 64.836 79.589zM65.51 37.912l7.912-16.382 3.78 1.825-7.911 16.383L65.51 37.912zM70.512 40.328l7.912-16.383 1.298 0.627-7.911 16.382L70.512 40.328zM74.293 42.154l-1.262-0.609 7.913-16.383 1.26 0.609L74.293 42.154z" fill="#ffffff" data-fill-palette-color="accent"></path></g></svg></g></svg></g></svg></g></svg></g><defs></defs></svg><rect width="395.52" height="106.62674021571281" fill="none" stroke="none" visibility="hidden"></rect></g></svg></g></svg>